<?xml version="1.0" encoding="UTF-8" standalone="no"?>
<!-- Created with Inkscape (http://www.inkscape.org/) -->

<svg
   xmlns:dc="http://purl.org/dc/elements/1.1/"
   xmlns:cc="http://creativecommons.org/ns#"
   xmlns:rdf="http://www.w3.org/1999/02/22-rdf-syntax-ns#"
   xmlns:svg="http://www.w3.org/2000/svg"
   xmlns="http://www.w3.org/2000/svg"
   xmlns:sodipodi="http://sodipodi.sourceforge.net/DTD/sodipodi-0.dtd"
   xmlns:inkscape="http://www.inkscape.org/namespaces/inkscape"
   width="133.74727mm"
   height="56.44445mm"
   viewBox="0 0 473.90764 200.00002"
   id="svg2"
   version="1.1"
   inkscape:version="0.91 r13725"
   sodipodi:docname="logo hydrate new v1.svg"
   inkscape:export-filename="/home/philippe/Images/flowRoot3336.png"
   inkscape:export-xdpi="56"
   inkscape:export-ydpi="56">
  <defs
     id="defs4" />
  <sodipodi:namedview
     id="base"
     pagecolor="#ffffff"
     bordercolor="#666666"
     borderopacity="1.0"
     inkscape:pageopacity="0.0"
     inkscape:pageshadow="2"
     inkscape:zoom="6.5024382"
     inkscape:cx="290.07368"
     inkscape:cy="91.511622"
     inkscape:document-units="px"
     inkscape:current-layer="layer2"
     showgrid="false"
     inkscape:window-width="1855"
     inkscape:window-height="1056"
     inkscape:window-x="65"
     inkscape:window-y="24"
     inkscape:window-maximized="1"
     fit-margin-top="0"
     fit-margin-left="0"
     fit-margin-right="0"
     fit-margin-bottom="0" />
  <metadata
     id="metadata7">
    <rdf:RDF>
      <cc:Work
         rdf:about="">
        <dc:format>image/svg+xml</dc:format>
        <dc:type
           rdf:resource="http://purl.org/dc/dcmitype/StillImage" />
        <dc:title />
      </cc:Work>
    </rdf:RDF>
  </metadata>
  <g
     inkscape:label="Calque 1"
     inkscape:groupmode="layer"
     id="layer1"
     transform="translate(-165.0199,-139.23823)">
    <flowRoot
       xml:space="preserve"
       id="flowRoot3336"
       style="font-style:normal;font-weight:normal;font-size:40px;line-height:125%;font-family:sans-serif;letter-spacing:0px;word-spacing:0px;fill:#000000;fill-opacity:1;stroke:none;stroke-width:1px;stroke-linecap:butt;stroke-linejoin:miter;stroke-opacity:1"
       transform="matrix(1.1445533,0,0,1.1445533,69.404994,-25.857874)"
       inkscape:export-xdpi="56"
       inkscape:export-ydpi="56"><flowRegion
         id="flowRegion3338"><rect
           id="rect3340"
           width="419.07193"
           height="65.43129"
           x="81.789139"
           y="271.08121" /></flowRegion><flowPara
         id="flowPara3342"
         style="font-style:normal;font-variant:normal;font-weight:normal;font-stretch:normal;font-size:50px;font-family:'Varela Round';-inkscape-font-specification:'Varela Round';letter-spacing:15px">&lt;HYDRATE&gt;</flowPara></flowRoot>    <flowRoot
       xml:space="preserve"
       id="flowRoot3344"
       style="font-style:normal;font-weight:normal;font-size:40px;line-height:125%;font-family:sans-serif;letter-spacing:0px;word-spacing:0px;fill:#000000;fill-opacity:1;stroke:none;stroke-width:1px;stroke-linecap:butt;stroke-linejoin:miter;stroke-opacity:1"><flowRegion
         id="flowRegion3346"><rect
           id="rect3348"
           width="47.515594"
           height="80.231247"
           x="1031.322"
           y="493.08029" /></flowRegion><flowPara
         id="flowPara3350" /></flowRoot>  </g>
  <g
     inkscape:groupmode="layer"
     id="layer2"
     inkscape:label="Calque 2"
     transform="translate(-165.0199,-139.23823)">
    <polygon
       id="polygon3421"
       points="871.55844,257 871.55844,617 617,871.55844 257,871.55844 2.441559,617 2.441559,257 257,2.441559 617,2.441559 "
       style="fill:#2aabe2;fill-opacity:1;stroke:#000000;stroke-width:17.10453224;stroke-miterlimit:4;stroke-dasharray:none;stroke-dashoffset:0;stroke-opacity:1"
       transform="matrix(0.13105663,0,0,0.13098332,344.70198,140.03863)"
       inkscape:export-xdpi="56"
       inkscape:export-ydpi="56" />
  </g>
  <g
     inkscape:groupmode="layer"
     id="layer3"
     inkscape:label="Calque 3"
     transform="translate(-165.0199,-139.23823)">
    <path
       style="fill:#ffffff;fill-opacity:1"
       d="m 402.58589,231.14756 c -0.65618,-0.32364 -0.78362,-0.65804 -1.15782,-3.03838 -0.29415,-1.87111 -0.93201,-3.98649 -2.72758,-9.04578 -2.33721,-6.58539 -2.60352,-9.67579 -1.29377,-15.01408 0.54609,-2.22579 1.03722,-3.6403 2.95415,-8.5084 2.62042,-6.65458 3.16374,-9.0243 2.84474,-12.40715 -0.25995,-2.75645 -0.83731,-5.4936 -2.28228,-10.81992 -1.36158,-5.01885 -1.87578,-7.50246 -1.71003,-8.25948 0.12804,-0.58485 0.99247,-1.32561 1.54694,-1.32561 0.59619,0 1.32069,0.41269 1.54543,0.88034 0.10519,0.21893 0.32203,1.11527 0.4818,1.99187 0.15977,0.8766 0.77786,3.39411 1.37352,5.59446 1.95789,7.23226 2.45573,9.94903 2.45731,13.40974 0.002,3.57809 -0.54264,5.69519 -3.22603,12.54849 -2.69019,6.87062 -3.31653,9.24423 -3.30761,12.53484 0.008,2.78931 0.30611,3.96909 2.78222,10.9942 1.29482,3.67356 1.79263,5.50008 2.06365,7.57162 0.2415,1.84585 0.10679,2.40894 -0.68848,2.87874 -0.60009,0.35449 -0.96042,0.35763 -1.65616,0.0145 z m -16.43069,-3.55659 c -1.11407,-0.60596 -2.86973,-5.6367 -3.48159,-9.97643 -0.29819,-2.1149 -0.33349,-6.27795 -0.0715,-8.4374 0.2276,-1.87641 1.00894,-4.98052 1.57692,-6.26481 0.6535,-1.47767 1.78332,-1.96319 2.80076,-1.20356 0.81569,0.60899 0.82487,1.10734 0.0625,3.38802 -0.99247,2.96894 -1.28237,5.21612 -1.16405,9.02348 0.13059,4.20236 0.81671,7.35177 2.2559,10.35484 0.65509,1.36695 0.70873,1.78589 0.32386,2.53013 -0.41347,0.79956 -1.43285,1.05886 -2.30273,0.58573 z m 30.92541,0.0828 c -0.45582,-0.18406 -0.89739,-0.82493 -1.4735,-2.13857 -2.94791,-6.72173 -3.27354,-15.81366 -0.79644,-22.237 0.52572,-1.36324 0.91085,-1.8136 1.60968,-1.88235 0.77086,-0.0759 1.14471,0.027 1.54182,0.4241 0.52127,0.52127 0.5555,1.44932 0.0933,2.52772 -0.57752,1.34729 -1.18686,4.14069 -1.39117,6.37753 -0.419,4.58733 0.33488,9.3432 2.15735,13.60966 0.70213,1.64369 0.75763,1.86889 0.57136,2.31857 -0.40469,0.977 -1.35359,1.3875 -2.31236,1.00034 z m -30.87287,-35.248 c -0.73388,-0.56495 -0.73807,-1.1341 -0.0242,-3.28961 0.93816,-2.83279 1.22872,-4.79685 1.22106,-8.25415 -0.009,-4.26633 -0.84638,-8.34915 -2.30569,-11.2478 -0.71882,-1.4278 -0.7115,-2.18976 0.0274,-2.84994 0.49039,-0.43815 0.67413,-0.50117 1.24001,-0.42527 0.92758,0.12442 1.12328,0.33546 1.95244,2.1055 1.64573,3.51321 2.47607,7.64071 2.49807,12.41751 0.015,3.24994 -0.15137,4.73573 -0.83659,7.47265 -0.56248,2.24676 -1.19491,3.78162 -1.69251,4.10767 -0.53608,0.35124 -1.60052,0.33253 -2.07997,-0.0365 z m 30.75328,-0.0456 c -0.69442,-0.54624 -0.72531,-1.23381 -0.1282,-2.8533 0.83755,-2.27154 1.21631,-4.40735 1.32577,-7.47621 0.15716,-4.40576 -0.51247,-8.2628 -2.07876,-11.97355 -0.42209,-0.99997 -0.76743,-2.01658 -0.76743,-2.25914 0,-1.05775 1.30934,-1.78534 2.39991,-1.33362 1.01178,0.41909 2.65769,4.56111 3.42843,8.62787 0.3277,1.72899 0.38252,2.58429 0.38078,5.94022 -0.002,3.42515 -0.0505,4.14393 -0.38606,5.68964 -0.60407,2.78294 -1.35663,4.95521 -1.90749,5.50608 -0.6002,0.60021 -1.59786,0.65831 -2.26695,0.13201 z"
       id="path4371"
       inkscape:connector-curvature="0"
       inkscape:export-xdpi="56"
       inkscape:export-ydpi="56" />
  </g>
</svg>
